<?xml version="1.0" standalone="no"?>
<!DOCTYPE svg PUBLIC "-//W3C//DTD SVG 20010904//EN"
 "http://www.w3.org/TR/2001/REC-SVG-20010904/DTD/svg10.dtd">
<svg version="1.0" xmlns="http://www.w3.org/2000/svg"
 width="324.000000pt" height="324.000000pt" viewBox="0 0 324.000000 324.000000"
 preserveAspectRatio="xMidYMid meet">
<metadata>
Created by potrace 1.11, written by Peter Selinger 2001-2013
</metadata>
<g transform="translate(0.000000,324.000000) scale(0.100000,-0.100000)"
fill="#000000" stroke="none">
<path d="M1435 2994 c-358 -63 -605 -370 -607 -754 -1 -249 67 -399 287 -631
138 -145 207 -244 238 -343 18 -59 22 -93 21 -196 -1 -138 -17 -203 -77 -310
-41 -74 -148 -178 -223 -218 -220 -115 -491 -60 -630 129 -139 190 -93 437
101 542 50 27 163 30 210 5 115 -61 144 -235 42 -252 -19 -3 -36 3 -56 20
-103 86 -166 -82 -68 -184 87 -90 287 -61 366 54 78 112 85 301 17 418 -78
133 -234 218 -402 218 -323 1 -568 -280 -550 -630 14 -268 193 -498 464 -596
301 -108 609 -28 841 219 108 116 151 196 201 375 66 238 104 314 215 426 131
131 257 184 441 184 171 0 275 -42 390 -155 113 -111 159 -224 152 -374 -3
-70 -10 -99 -35 -152 -71 -154 -203 -242 -358 -241 -184 2 -319 179 -251 329
21 47 79 93 117 93 42 -1 73 -33 71 -74 -1 -20 -4 -41 -7 -46 -8 -13 40 -60
60 -60 30 0 81 28 107 58 34 40 43 98 27 165 -10 42 -23 63 -69 109 -67 66
-110 83 -220 83 -62 0 -85 -5 -131 -28 -229 -112 -300 -421 -151 -653 171
-265 569 -315 841 -107 334 256 355 755 45 1075 -153 158 -340 239 -559 242
-124 1 -158 -4 -320 -50 -222 -62 -387 -51 -560 38 -124 64 -209 148 -264 263
-46 93 -61 159 -61 257 0 302 258 548 525 499 129 -24 233 -102 286 -215 31
-66 37 -131 19 -198 -14 -48 -66 -117 -108 -141 -96 -56 -229 -4 -220 85 2 26
12 37 48 58 36 21 46 32 48 57 7 67 -88 118 -176 94 -125 -34 -188 -218 -126
-366 53 -128 197 -208 362 -201 236 10 421 200 439 451 8 112 -10 203 -58 302
-120 243 -407 378 -694 327z"/>
</g>
</svg>
